:FULLY-SPECIFIED
:FORCE-ALL-JOINTS-BE-3DOF
:DEGREES
85
root 4.94839 16.8513 -8.13438 2.48459 -0.577999 3.21034
lfemur -13.3202 -0.611798 -27.7153
ltibia 33.4613 0 0
lfoot -16.6781 4.02305 0.0317128
ltoes -11.8781 0 0
rfemur -23.2245 -6.08725 16.903
rtibia 85.5898 0 0
rfoot 2.17645 -9.82416 0.551451
rtoes 8.5479 0 0
lowerback 6.35779 -1.25419 -4.86286
upperback 0.988015 -2.13707 -0.0747407
thorax -2.30845 -0.921991 2.87139
lowerneck -15.1628 -2.37376 -7.21397
upperneck 5.08834 -2.49388 8.57717
head 4.49416 -1.01498 3.76796
lclavicle -2.49105e-15 9.93922e-15 -2.19296e-30
lhumerus -21.6499 -15.44 85.8188
lradius 68.1009 0 0
lwrist 16.1087 0 0
lhand -24.0459 -6.52435 -2.05369
lfingers 7.12502 0 0
lthumb 2.42805 23.0087 -2.00062
rclavicle -2.49105e-15 9.93922e-15 -2.19296e-30
rhumerus -46.3837 8.61287 -86.3384
rradius 58.8574 0 0
rwrist -9.97501 0 0
rhand -38.02 6.5402 -1.92057
rfingers 7.12502 0 0
rthumb -11.0527 -23.0303 -1.87515
86
root 4.95885 16.8443 -7.83019 2.63521 -0.250275 3.07187
lfemur -12.2486 -0.45457 -27.5188
ltibia 33.3647 0 0
lfoot -17.2146 3.74571 0.031826
ltoes -12.5845 0 0
rfemur -25.3602 -6.10455 17.2105
rtibia 85.6548 0 0
rfoot 1.07595 -9.80143 0.503552
rtoes 8.83808 0 0
lowerback 6.23237 -1.40735 -4.54765
upperback 1.02669 -2.31316 -0.0736193
thorax -2.20159 -1.013 2.72703
lowerneck -15.1323 -2.36506 -7.31943
upperneck 4.98279 -2.47452 8.71262
head 4.46509 -0.999688 3.80918
lclavicle 2.20488e-15 1.19271e-14 2.42019e-31
lhumerus -20.0288 -15.8327 85.5876
lradius 68.6629 0 0
lwrist 16.2686 0 0
lhand -24.3532 -5.7876 -2.18752
lfingers 7.12502 0 0
lthumb 2.1317 23.7383 -2.12785
rclavicle 2.20488e-15 1.19271e-14 2.42019e-31
rhumerus -46.7282 8.10612 -86.1392
rradius 58.5708 0 0
rwrist -10.0027 0 0
rhand -37.9543 6.52895 -2.02593
rfingers 7.12502 0 0
rthumb -10.9887 -23.0342 -1.97871
87
root 4.97375 16.8544 -7.50754 2.60008 -0.111742 3.23726
lfemur -10.681 -0.195509 -27.6745
ltibia 33.0464 0 0
lfoot -17.6259 3.45223 0.0298698
ltoes -12.3333 0 0
rfemur -27.0832 -5.80999 17.1174
rtibia 85.3343 0 0
rfoot -0.614 -10.0359 0.449928
rtoes 5.54314 0 0
lowerback 6.21647 -1.53237 -4.55378
upperback 0.922968 -2.48897 -0.121589
thorax -2.29512 -1.09258 2.70251
lowerneck -14.7151 -2.2579 -7.51396
upperneck 4.98842 -2.32211 8.80507
head 4.39118 -0.940042 3.86967
lclavicle -1.47598e-14 3.18057e-15 -1.98074e-30
lhumerus -18.9276 -16.1274 85.604
lradius 69.0929 0 0
lwrist 16.2325 0 0
lhand -24.1253 -5.6346 -2.09544
lfingers 7.12502 0 0
lthumb 2.3522 23.9488 -2.03843
rclavicle -1.47598e-14 3.18057e-15 -1.98074e-30
rhumerus -47.5157 7.8018 -85.9824
rradius 58.4268 0 0
rwrist -10.1452 0 0
rhand -37.7691 6.4081 -2.22954
rfingers 7.12502 0 0
rthumb -10.8092 -23.144 -2.17877
88
root 4.98872 16.8694 -7.1754 2.69981 -0.213235 3.38873
lfemur -9.22453 0.150647 -27.8288
ltibia 32.4809 0 0
lfoot -17.6938 3.28431 0.0150364
ltoes -13.7188 0 0
rfemur -28.8657 -5.24181 17.0411
rtibia 84.749 0 0
rfoot -1.67185 -10.0858 0.447043
rtoes 3.50835 0 0
lowerback 5.82589 -1.55882 -4.54882
upperback 0.862495 -2.50186 -0.176882
thorax -2.153 -1.10538 2.66011
lowerneck -14.3306 -2.23804 -7.65159
upperneck 4.93297 -2.29542 8.73147
head 4.31483 -0.935715 3.84559
lclavicle -1.49446e-14 -2.38545e-15 -1.63721e-30
lhumerus -17.9415 -16.5319 85.6225
lradius 69.6804 0 0
lwrist 15.9829 0 0
lhand -24.5114 -7.77138 -1.86455
lfingers 7.12502 0 0
lthumb 1.9799 21.8191 -1.81287
rclavicle -1.49446e-14 -2.38545e-15 -1.63721e-30
rhumerus -48.1962 7.50289 -85.8015
rradius 58.4154 0 0
rwrist -10.592 0 0
rhand -37.8002 6.067 -2.26838
rfingers 7.12502 0 0
rthumb -10.8391 -23.4783 -2.21728
